<svg xmlns="http://www.w3.org/2000/svg" xmlns:xlink="http://www.w3.org/1999/xlink" width="256" height="109.808" viewBox="0 0 256 109.808">
  <defs>
    <clipPath id="clip-path">
      <rect id="Rectangle_3327" data-name="Rectangle 3327" width="256" height="109.808" fill="none"/>
    </clipPath>
  </defs>
  <g id="Group_9806" data-name="Group 9806" transform="translate(2891 -1232)">
    <g id="Group_9658" data-name="Group 9658" transform="translate(-2891 1232)">
      <g id="Group_9657" data-name="Group 9657" transform="translate(0 0)" clip-path="url(#clip-path)">
        <path id="Path_3722" data-name="Path 3722" d="M181.467,63.079V32.3h4.593V58.441h15.694v4.638Zm-32.285,0V32.3h20.283v4.638H153.773v8.477h15.692v4.593H153.773v8.43h15.692v4.638Zm-34.007,0V32.3h10.143A15.444,15.444,0,0,1,140.7,47.692a15.441,15.441,0,0,1-15.387,15.387Zm4.593-4.638h5.55A10.729,10.729,0,0,0,132.9,40.106a10.388,10.388,0,0,0-7.586-3.165h-5.55Zm-17.234,4.638-2.622-5.244h-14.8l-2.667,5.244H77.288l15.2-30.4,15.2,30.4ZM87.383,53.24H97.591l-5.1-10.208ZM61.77,63.079V36.941H51.279V32.3H76.854v4.638H66.408V63.079ZM37.035,32.3h4.593V63.079H37.035Zm-21.6,30.776a14.928,14.928,0,0,1-10.91-4.524,15.3,15.3,0,0,1,0-21.727A14.835,14.835,0,0,1,15.434,32.3,14.912,14.912,0,0,1,21.4,33.5a15.7,15.7,0,0,1,4.685,3.114L22.8,39.893a10.366,10.366,0,0,0-7.368-2.952A10.439,10.439,0,0,0,7.8,40.106a10.4,10.4,0,0,0-3.165,7.586,10.725,10.725,0,0,0,10.8,10.749A10.534,10.534,0,0,0,22.8,55.53l3.28,3.239A15.739,15.739,0,0,1,21.4,61.883a14.949,14.949,0,0,1-5.961,1.2" transform="translate(0 25.947)" fill="#4d4848"/>
        <path id="Path_3723" data-name="Path 3723" d="M87.754,65.156,90.5,58.912h.023l1.069,6.05h1.178l-1.87-9.55-3.147,7.217-3.148-7.217-1.87,9.55h1.178l1.071-6.05h.023Zm8.953-.195h4.921V63.916H97.851V60.454h3.67V59.409h-3.67V56.845h3.778V55.8H96.707Zm9.624,0h1.141V58.133l6.878,7.206V55.8h-1.143v6.768l-6.876-7.206Zm15.515-8.116h2.175V55.8H118.53v1.044H120.7v8.116h1.141Z" transform="translate(66.457 44.469)" fill="#a2abb0"/>
        <path id="Path_3724" data-name="Path 3724" d="M6.8,55.8H5.561l3.8,9.525,2.588-6.719,2.588,6.719,3.8-9.525H17.1l-2.564,6.56-2.588-6.755L9.364,62.361Zm14.448,9.16h4.921V63.918h-3.78V60.454h3.67V59.409h-3.67V56.845h3.78V55.8H21.247Zm14.264-2.3,1.044,2.3h1.228l-4.373-9.55-4.375,9.55h1.226l1.046-2.3Zm-.474-1.046H31.78l1.63-3.706Zm6.84-5.819H40.735v9.16h3.926V63.918H41.876Zm9.283,1.044h2.177V55.8H47.843v1.044h2.175v8.116h1.141ZM58.2,59.494V55.8H57.052v9.16H58.2v-4.4h4.36v4.4H63.7V55.8H62.556v3.693ZM80.94,65.156l2.745-6.245h.025l1.069,6.05h1.179l-1.872-9.55L80.94,62.628l-3.147-7.217-1.872,9.55H77.1l1.069-6.05h.025ZM95.4,62.666l1.046,2.3H97.67L93.3,55.412l-4.375,9.55h1.228l1.046-2.3Zm-.474-1.046H91.667L93.3,57.915Zm5.832,3.341H101.9V58.133l6.878,7.206V55.8h-1.141v6.768l-6.878-7.206Zm17.582-2.3,1.046,2.3h1.226l-4.375-9.55-4.373,9.55h1.226l1.046-2.3Zm-.474-1.046h-3.257l1.628-3.706Zm10.414-1.277v1.046h2.368a3.074,3.074,0,0,1-3,2.721,3.742,3.742,0,0,1-3.56-3.742,3.612,3.612,0,0,1,6.537-2.223l.8-.766a4.771,4.771,0,0,0-8.482,3.026,4.741,4.741,0,0,0,4.629,4.752,4.255,4.255,0,0,0,4.339-4.447v-.366Zm7.678,4.618h4.921V63.918H137.1V60.454h3.67V59.409H137.1V56.845h3.78V55.8h-4.921Z" transform="translate(4.467 44.469)" fill="#a2abb0"/>
        <path id="Path_3725" data-name="Path 3725" d="M138.526,45.479l8.116-5.832,3.4,14.107Zm-12.2,8.766,11.6-8.331,11.595,8.331Zm2.436-15.784-14.749-10.6L137.327,2.984Zm.619.445,8.546-35.379L146.462,38.9l-8.542,6.138ZM125.128,53.5l-10.8-24.537L128.579,39.2ZM129.2,39.649l8.115,5.83-11.521,8.275Zm32.316-10.688L150.712,53.5,147.259,39.2Zm.312-1.1-14.747,10.6L138.512,2.984Zm-23.9-26.542L113.059,27.845,124.8,54.5l.085.2.1.252h25.867L162.686,28.06l.094-.215Z" transform="translate(90.813 1.063)" fill="#e4791d"/>
        <path id="Path_3726" data-name="Path 3726" d="M135.114,34.567a2.438,2.438,0,1,0-2.438-2.438,2.437,2.437,0,0,0,2.438,2.438" transform="translate(106.57 23.849)" fill="#4d4848"/>
        <path id="Path_3727" data-name="Path 3727" d="M141.7,19.542a2.438,2.438,0,1,0-2.438-2.438,2.437,2.437,0,0,0,2.438,2.438" transform="translate(111.861 11.78)" fill="#4d4848"/>
        <path id="Path_3728" data-name="Path 3728" d="M127.923,19.542a2.438,2.438,0,1,0-2.438-2.438,2.437,2.437,0,0,0,2.438,2.438" transform="translate(100.794 11.78)" fill="#4d4848"/>
        <path id="Path_3729" data-name="Path 3729" d="M114.171,19.542a2.438,2.438,0,1,0-2.438-2.438,2.437,2.437,0,0,0,2.438,2.438" transform="translate(89.748 11.78)" fill="#4d4848"/>
        <path id="Path_3730" data-name="Path 3730" d="M127.923,4.876a2.438,2.438,0,1,0-2.438-2.438,2.437,2.437,0,0,0,2.438,2.438" transform="translate(100.794 0)" fill="#4d4848"/>
        <path id="Path_3731" data-name="Path 3731" d="M120.751,34.567a2.438,2.438,0,1,0-2.438-2.438,2.437,2.437,0,0,0,2.438,2.438" transform="translate(95.033 23.849)" fill="#4d4848"/>
      </g>
    </g>
  </g>
</svg>
