<svg xmlns="http://www.w3.org/2000/svg" width="184.66" height="116" viewBox="0 0 184.66 116">
  <g id="Group_9611" data-name="Group 9611" transform="translate(-239.669 -1003.651)">
    <path id="Path_1912" data-name="Path 1912" d="M424.232,1083.626a9.039,9.039,0,0,1-1.455-2.155,12.551,12.551,0,0,1-.755-1.885.764.764,0,0,0-.754-.538.667.667,0,0,0-.755.754,53.985,53.985,0,0,1-1.024,7.057,33.468,33.468,0,0,1-2.1,6.842,8.3,8.3,0,0,1-.7.862,1.716,1.716,0,0,1-1.347.539,1.951,1.951,0,0,1-1.4-.646,5.306,5.306,0,0,1-1.078-3.017,34.84,34.84,0,0,1-.162-4.473,45.524,45.524,0,0,1,.377-4.9q.323-2.479.538-4.311a3.388,3.388,0,0,0-2.694-3.987l-1.077-.215a1.792,1.792,0,0,0-1.616.323,2.024,2.024,0,0,0-.969,1.4,11.884,11.884,0,0,0-.431,2.424q-.218,1.887-.431,4.364-.432,1.939-1.078,4.579t-1.508,5.441q-.863,2.8-1.939,5.55a42.208,42.208,0,0,1-2.263,4.9l-.215.216a5.091,5.091,0,0,1-.646,1.024,3.23,3.23,0,0,1-.754.646,1.288,1.288,0,0,1-.97.162,1.367,1.367,0,0,1-.646-.647,10.954,10.954,0,0,1-1.239-4.526,56.317,56.317,0,0,1-.269-7.757,79.84,79.84,0,0,1,.916-9.913,85.421,85.421,0,0,1,2.425-10.991,4.067,4.067,0,0,0,0-2.909,4.945,4.945,0,0,0-1.725-2.262l-1.508-1.078a2.334,2.334,0,0,0-2.155-.432,2.264,2.264,0,0,0-1.508,1.509,52.448,52.448,0,0,0-1.778,5.495q-.808,3.019-1.455,6.25t-1.023,6.52q-.185,1.6-.3,3.133a27.218,27.218,0,0,1-9.234,2.954,15.831,15.831,0,0,1-5.818-.215,24.972,24.972,0,0,0,1.185-4.9,26.149,26.149,0,0,0,.215-4.687,14.836,14.836,0,0,0-1.886-6.9,8.817,8.817,0,0,0-11.691-3.448,17,17,0,0,0-6.2,6.2,41.851,41.851,0,0,0-4.58,10.722c-.049.185-.085.36-.13.542q-2.586,4.854-4.557,8.293-2.1,3.665-4.8,7.6a45.9,45.9,0,0,1-5.28,6.519h-.107q-.755.43-1.4.755a5.708,5.708,0,0,1-1.293.323,1.956,1.956,0,0,1-1.4-.323,4.4,4.4,0,0,1-1.67-1.939,14.157,14.157,0,0,1-1.185-4.8,59.74,59.74,0,0,1-.161-8.781q.188-4.829,1.211-11.986a54.025,54.025,0,0,0,4.808-6.359q2.64-3.985,5.172-8.62c1.687-3.087,3.786-8.557,5.295-11.934s2.8-6.643,3.879-9.805a63.632,63.632,0,0,0,2.37-8.783,18.715,18.715,0,0,0,.215-6.841l-.107-.109a5.134,5.134,0,0,0-2.909-4.2,6.2,6.2,0,0,0-5.711.215q-3.018,1.617-5.926,6.25a65.49,65.49,0,0,0-5.549,11.637,138.221,138.221,0,0,0-4.849,16.109q-2.21,9.106-3.826,19.665c-.346,2.29-.263,3.094-.853,4-7.069,6.779-23.7,11.948-24.274,11.948.143-.862.3-1.74.485-2.64s.377-1.777.593-2.64q.43-2.368.862-4.471t.862-4.041v-.108a50.633,50.633,0,0,0,6.789-6.141,63.053,63.053,0,0,0,6.573-8.3q.97-1.4,2.1-3.342a40.436,40.436,0,0,0,2.1-4.148,33.778,33.778,0,0,0,1.617-4.526,14.025,14.025,0,0,0,.539-4.471l-.324-.646a5.57,5.57,0,0,0-2.478-4.849,6.825,6.825,0,0,0-6.3-1.186,12.474,12.474,0,0,0-6.412,4.74q-4.419,5.714-7.919,16.488a151.086,151.086,0,0,0-5.55,24.89q-.635,3.877-1.118,7.342a67.4,67.4,0,0,1-26.243-.749,19.572,19.572,0,1,0-9.133-.925,68.333,68.333,0,0,0,24.151,4.374,69.35,69.35,0,0,0,10.978-.879q-.8,6.012-1.112,10.717a94.939,94.939,0,0,0-.108,13.469,29.1,29.1,0,0,0,1.778,8.674,18.562,18.562,0,0,0,3.179,5.28,9.914,9.914,0,0,0,7.435,3.663,10.21,10.21,0,0,0,2.478-.323,8.739,8.739,0,0,0,2.639-1.509,9.293,9.293,0,0,0,2.317-2.855,16.02,16.02,0,0,0,1.509-4.256,24.157,24.157,0,0,0,.431-5.819q-.864-19.717-11.207-29.307a91.756,91.756,0,0,0,22.5-10.751c-.744,8.582-.335,17.588,1.229,21.957a8.271,8.271,0,0,0,2.1,3.233,7.877,7.877,0,0,0,2.425,1.508,9.568,9.568,0,0,0,3.017.539,6.919,6.919,0,0,0,3.125-.647,18.494,18.494,0,0,0,3.34-2.586,43.86,43.86,0,0,0,5.442-6.518q2.747-3.933,4.9-7.651,1.541-2.66,2.7-4.792a15.871,15.871,0,0,0,.537,4.2,10.954,10.954,0,0,0,1.508,3.34,13.507,13.507,0,0,0,2.047,2.371,8.7,8.7,0,0,0,5.711,2.048,8.81,8.81,0,0,0,3.987-.97,14.922,14.922,0,0,0,5.6-4.633,26.753,26.753,0,0,0,3.771-6.9,17.767,17.767,0,0,0,1.939.324,18.632,18.632,0,0,0,2.047.107,24.138,24.138,0,0,0,4.633-.538,26.7,26.7,0,0,0,6.358-2.209l.495-.258c-.025.468-.048.932-.064,1.39q-.106,2.694.054,5.6a29.315,29.315,0,0,0,.807,5.5,15.158,15.158,0,0,0,1.886,4.526,7.2,7.2,0,0,0,3.179,2.8,9.689,9.689,0,0,0,.916.323,3.393,3.393,0,0,0,.916.108,4.586,4.586,0,0,0,2.155-.646,11.471,11.471,0,0,0,3.771-3.879q.538-.97.646-.969v-.109a46.1,46.1,0,0,0,3.071-6.95q1.347-3.823,2.317-7.488a26.186,26.186,0,0,0,.862,4.794,10.828,10.828,0,0,0,1.832,3.827,5.612,5.612,0,0,0,4.31,2.046,4.344,4.344,0,0,0,3.5-1.832,17.3,17.3,0,0,0,2.478-4.417,29.857,29.857,0,0,0,1.563-5.441q.538-2.854.862-5.011C422.417,1084.076,424.841,1084.31,424.232,1083.626Zm-95.268-7.191a236.528,236.528,0,0,1,5.295-23.787,97.851,97.851,0,0,1,4.9-13.522,25.114,25.114,0,0,1,4.418-7q2.046-1.993,3.34-1.994a.96.96,0,0,1,1.186.755,18.218,18.218,0,0,1-.216,6.142,59.465,59.465,0,0,1-2.047,7.974,94.766,94.766,0,0,1-3.448,8.944c-1.365,3.09-2.8,7.425-4.31,10.369s-3.572,6.629-5.188,9.215a69.649,69.649,0,0,1-4.58,6.573Zm-25.22-13.821a55.34,55.34,0,0,1,4.311-9.536,11.685,11.685,0,0,1,3.556-4.094,4.594,4.594,0,0,1,2.532-.754h.108a2.872,2.872,0,0,1,1.292.863,2.765,2.765,0,0,1,.863,1.4.867.867,0,0,0,.215.645,17.16,17.16,0,0,1-1.455,6.9,46.836,46.836,0,0,1-4.095,7.812,66.711,66.711,0,0,1-5.711,7.6,54.142,54.142,0,0,1-6.3,6.249A136.4,136.4,0,0,1,303.744,1062.615Zm-45.973,9.019h4.312l2.067,3.261,2.085-3.261H270.6l-4.08,5.97,4.454,6.521H266.52l-2.37-3.564-2.335,3.564h-4.329l4.419-6.361Zm-6.54,12.491h-3.706v-12.491h9.693v2.852h-5.987v2.494h5.559v2.851h-5.559Zm55.585,42.657a18.337,18.337,0,0,1-.216,4.956,11.759,11.759,0,0,1-1.4,3.771q-2.156,3.233-5.064,1.941a9.779,9.779,0,0,1-3.394-4.2,27.345,27.345,0,0,1-2.317-7.974,80.671,80.671,0,0,1-.431-12.123,124.223,124.223,0,0,1,1.508-15.03Q305.952,1107.17,306.815,1126.781Zm60.2-30.817a16.828,16.828,0,0,1-3.61,3.986q-2.694,2.048-5.172.323-1.833-1.185-2.8-4.58t.539-9.214a22.731,22.731,0,0,1,3.771-8.188,14.306,14.306,0,0,0,.807,3.556,16.69,16.69,0,0,0,8.782,8.836.435.435,0,0,0,.324.107A26.946,26.946,0,0,1,367.015,1095.964Zm4.31-11.26a29.692,29.692,0,0,1-1.131,4.579.431.431,0,0,1-.324-.108,6.537,6.537,0,0,1-3.664-3.986,12.206,12.206,0,0,1-.808-3.5,23.654,23.654,0,0,1-.053-3.556,24.343,24.343,0,0,1,.376-3.071,17.336,17.336,0,0,1,.485-2.048,2.443,2.443,0,0,1,.755-.108,2.913,2.913,0,0,1,3.34,2.048,12.19,12.19,0,0,1,.916,2.8,13.385,13.385,0,0,1,.27,2.478A17.194,17.194,0,0,1,371.325,1084.7Z" transform="translate(0 -22)" fill="#1712b3"/>
  </g>
</svg>
