<svg xmlns="http://www.w3.org/2000/svg" width="256" height="94.114" viewBox="0 0 256 94.114">
  <g id="Group_9810" data-name="Group 9810" transform="translate(-773.002 -411)">
    <g id="Group_7626" data-name="Group 7626" transform="translate(773.002 411)">
      <g id="Group_7624" data-name="Group 7624">
        <path id="Path_3403" data-name="Path 3403" d="M390.1,342.149v68.134a34.067,34.067,0,0,0,0-68.134Z" transform="translate(-356.032 -316.169)" fill="#004f59"/>
        <path id="Path_3404" data-name="Path 3404" d="M353.976,288.621a34.067,34.067,0,1,0,0,68.134Z" transform="translate(-319.909 -288.621)" fill="#af9800"/>
      </g>
      <g id="Group_7625" data-name="Group 7625" transform="translate(87.069 31.251)">
        <path id="Path_3405" data-name="Path 3405" d="M691.837,357.234a11.886,11.886,0,0,1,6.642,2.012,20.237,20.237,0,0,1,2.463,2.067l.157.146c.2.191.409.381.618.571l.313.283,2.907-2.433-.828-.913a18.773,18.773,0,0,0-1.8-1.825,15.875,15.875,0,0,0-11.905-3.7,15.118,15.118,0,0,0-10.846,5.567A15.586,15.586,0,0,0,676.1,370.7a14.591,14.591,0,0,0,5.582,10.59,16.162,16.162,0,0,0,10.02,3.36h.007a16.442,16.442,0,0,0,10.337-3.537,14.829,14.829,0,0,0,2.6-2.616l.276-.367-2.8-2.359-.315.306q-.24.233-.476.465a23.329,23.329,0,0,1-1.768,1.619,12.557,12.557,0,0,1-7.8,2.655,11.931,11.931,0,0,1-6.556-1.886,11.756,11.756,0,0,1-4.443-13.651A11.41,11.41,0,0,1,691.837,357.234Z" transform="translate(-590.254 -353.198)" fill="#004f59"/>
        <path id="Path_3406" data-name="Path 3406" d="M514.969,368.813c-1.127-.609-2.264-1.166-3.362-1.7-.861-.423-1.837-.9-2.781-1.4a10.422,10.422,0,0,1-2.259-1.512,3.979,3.979,0,0,1-1.294-3.668,4.11,4.11,0,0,1,2.561-3.02,6.471,6.471,0,0,1,4.894.071,8.056,8.056,0,0,1,3.231,2.335l.364.417,2.469-2.809-.259-.318a11.157,11.157,0,0,0-8.494-3.921,10.5,10.5,0,0,0-4.131.826,7.8,7.8,0,0,0-4.811,8.948,7.545,7.545,0,0,0,3.615,5.042c1.172.73,2.464,1.37,3.6,1.934l.1.052c.617.307,1.233.614,1.842.936l.6.313a21.718,21.718,0,0,1,2.507,1.45,4.141,4.141,0,0,1,1.859,3.953,4.449,4.449,0,0,1-2.876,3.565,7.3,7.3,0,0,1-7.8-1.345,13.413,13.413,0,0,1-1.7-1.906l-.728-.913L499.3,378.46l.184.35c.1.194.2.381.313.563a11.35,11.35,0,0,0,9.835,5.287,11.681,11.681,0,0,0,5.746-1.46,8.1,8.1,0,0,0,3.919-9.5A8.229,8.229,0,0,0,514.969,368.813Z" transform="translate(-499.303 -353.152)" fill="#004f59"/>
        <path id="Path_3407" data-name="Path 3407" d="M599.338,372.34a10.859,10.859,0,0,0-7.564-1.691,10.108,10.108,0,0,0-7.594,4.328,12.28,12.28,0,0,0-1.516,11.069,9.844,9.844,0,0,0,6.422,6.733,13.6,13.6,0,0,0,4.55.771,16.765,16.765,0,0,0,3.715-.439,15.016,15.016,0,0,0,5.475-2.369l.357-.252-1.623-2.884-.541.335a13.8,13.8,0,0,1-7.075,2.073,12.965,12.965,0,0,1-2.049-.167,6.828,6.828,0,0,1-5.773-6.155l-.006-.067H603.68l.008-.477c0-.231.01-.457.017-.724a18.991,18.991,0,0,0-.041-2.441A10.011,10.011,0,0,0,599.338,372.34Zm-13.208,7.941,0-.063c.111-3.393,3.427-6.261,7.242-6.262l.171,0a6.319,6.319,0,0,1,6.217,6.263v.06Z" transform="translate(-541.863 -362.043)" fill="#004f59"/>
        <path id="Path_3408" data-name="Path 3408" d="M760.461,373.994c-.037-.043-.07-.081-.1-.114l-.041-.045a10.329,10.329,0,0,0-7.837-3.3h-.041a10.993,10.993,0,0,0-5.555,1.537,10.625,10.625,0,0,0-5.273,9.1,11.729,11.729,0,0,0,3.609,9.526,10.68,10.68,0,0,0,7.337,2.862h0a10.708,10.708,0,0,0,7.771-3.207l.063-.065.061-.062v2.76h3.593V371.116h-3.586Zm-.017,6.048a9.215,9.215,0,0,1,.2,1.366l.038.412c-.089,3.836-1.9,6.67-4.982,7.777a8.006,8.006,0,0,1-2.718.483,7.483,7.483,0,0,1-7.393-6.54,8.283,8.283,0,0,1,2.045-7.236,6.925,6.925,0,0,1,5.178-2.277,9.154,9.154,0,0,1,2.45.355A7.222,7.222,0,0,1,760.444,380.042Z" transform="translate(-623.996 -362.03)" fill="#004f59"/>
        <path id="Path_3409" data-name="Path 3409" d="M823.527,381.178a10.624,10.624,0,0,0-5.272-9.1,10.994,10.994,0,0,0-5.555-1.537h-.041a10.325,10.325,0,0,0-7.839,3.3l-.04.044c-.03.033-.064.071-.1.113v-2.877h-3.587v30.875h3.593V390.232l.061.062.064.066a10.931,10.931,0,0,0,15.108.345A11.728,11.728,0,0,0,823.527,381.178Zm-3.972,2.363a7.484,7.484,0,0,1-7.394,6.54,8,8,0,0,1-2.716-.483c-3.079-1.108-4.893-3.942-4.982-7.777l.037-.414a9.273,9.273,0,0,1,.2-1.364,7.224,7.224,0,0,1,5.186-5.658h0a7.231,7.231,0,0,1,7.627,1.921A8.279,8.279,0,0,1,819.556,383.541Z" transform="translate(-654.619 -362.03)" fill="#004f59"/>
        <path id="Path_3410" data-name="Path 3410" d="M563.962,381.809l-.244-.5-.4.121c-.2.061-.395.124-.588.188l-.134.043a16.79,16.79,0,0,1-2.453.665,3.214,3.214,0,0,1-3.953-2.889,5.821,5.821,0,0,1-.109-.992q-.021-5.406-.018-10.813v-.449a2.011,2.011,0,0,1,.037-.325l.031-.223h7.737v-3.246h-7.817v-7.784h-3.791l-.012,5.661c-.013,5.861-.029,13.889-.008,16.132a16.553,16.553,0,0,0,.264,2.947c.472,2.5,1.606,4.092,3.464,4.856a9.042,9.042,0,0,0,3.453.708,9.882,9.882,0,0,0,5.257-1.621l.362-.226-.178-.388C564.563,383.016,564.243,382.374,563.962,381.809Z" transform="translate(-526.544 -354.348)" fill="#004f59"/>
        <rect id="Rectangle_3078" data-name="Rectangle 3078" width="3.762" height="30.957" transform="translate(66.779 0.023)" fill="#004f59"/>
        <rect id="Rectangle_3079" data-name="Rectangle 3079" width="3.769" height="30.96" transform="translate(76.872)" fill="#004f59"/>
      </g>
    </g>
    <g id="Group_7787" data-name="Group 7787" transform="translate(859.513 484.888)">
      <path id="Path_3457" data-name="Path 3457" d="M77.953,78.165a9.218,9.218,0,1,1,9.205-9.231,9.019,9.019,0,0,1-9.205,9.231m0-2.567c3.578,0,6.172-2.592,6.172-6.664s-2.593-6.612-6.172-6.612-6.17,2.541-6.17,6.612,2.592,6.664,6.17,6.664" transform="translate(-68.749 -58.017)" fill="#af9800"/>
      <path id="Path_3458" data-name="Path 3458" d="M95.684,69.206c0-2.618-1.426-3.968-3.578-3.968-2.179,0-3.6,1.35-3.6,3.968v7.986H85.546V62.905H88.5v1.633a5.5,5.5,0,0,1,4.253-1.865c3.345,0,5.861,2.1,5.861,6.092v8.428H95.684Z" transform="translate(-64.233 -57.226)" fill="#af9800"/>
      <rect id="Rectangle_3148" data-name="Rectangle 3148" width="2.956" height="19.187" transform="translate(37.621 0.778)" fill="#af9800"/>
      <path id="Path_3459" data-name="Path 3459" d="M103.487,60.273a1.88,1.88,0,1,1,1.893,1.892,1.871,1.871,0,0,1-1.893-1.892m.388,3.785h2.956V78.345h-2.956Z" transform="translate(-59.41 -58.38)" fill="#af9800"/>
      <path id="Path_3460" data-name="Path 3460" d="M118.918,69.206c0-2.618-1.426-3.968-3.578-3.968-2.179,0-3.6,1.35-3.6,3.968v7.986h-2.956V62.905h2.956v1.633a5.493,5.493,0,0,1,4.252-1.865c3.346,0,5.861,2.1,5.861,6.092v8.428h-2.93Z" transform="translate(-57.988 -57.226)" fill="#af9800"/>
      <path id="Path_3461" data-name="Path 3461" d="M132.512,63.86a6.951,6.951,0,0,0-4.843-1.082,6.464,6.464,0,0,0-4.861,2.77,7.86,7.86,0,0,0-.971,7.086,6.3,6.3,0,0,0,4.111,4.31,8.71,8.71,0,0,0,2.913.494,10.729,10.729,0,0,0,2.378-.28,9.605,9.605,0,0,0,3.5-1.518l.23-.161-1.039-1.847-.346.216a8.837,8.837,0,0,1-4.53,1.327,8.115,8.115,0,0,1-1.311-.108,4.37,4.37,0,0,1-3.7-3.94l0-.043h11.243l.005-.306c0-.147.006-.292.011-.463a12.234,12.234,0,0,0-.027-1.562,6.407,6.407,0,0,0-2.769-4.893m-8.455,5.083V68.9a4.516,4.516,0,0,1,4.638-4.008h.109a4.046,4.046,0,0,1,3.98,4.01v.037Z" transform="translate(-54.592 -57.213)" fill="#af9800"/>
    </g>
  </g>
</svg>
